<?xml version="1.0" encoding="utf-8"?>
<!-- Generator: Adobe Illustrator 16.0.0, SVG Export Plug-In . SVG Version: 6.00 Build 0)  -->
<!DOCTYPE svg PUBLIC "-//W3C//DTD SVG 1.1//EN" "http://www.w3.org/Graphics/SVG/1.1/DTD/svg11.dtd">
<svg version="1.1" id="Layer_1" xmlns="http://www.w3.org/2000/svg" xmlns:xlink="http://www.w3.org/1999/xlink" x="0px" y="0px"
	 width="150px" height="200px" viewBox="0 0 150 200" enable-background="new 0 0 150 200" xml:space="preserve">
<path fill="#D7AC95" stroke="#000000" stroke-width="1.75" stroke-miterlimit="10" d="M47.166,135.037v29.118
	c0,0,8.14,27.754,27.249,27.754l26.61-27.355v-30.463L47.166,135.037z"/>
<path fill="none" stroke="#000000" stroke-width="1.75" stroke-miterlimit="10" d="M76.776,189.48c0,0-11.513-0.647-17.078-9.224"/>
<path fill="#D7AC95" stroke="#000000" stroke-width="1.75" stroke-miterlimit="10" d="M94.623,147.134
	c-3.826,2.322-8.994,6.642-8.994,6.642s-9.806,8.203-21.359,0.522c-8.756-5.821-11.642-7.164-11.642-7.164
	s-15.97-9.293-13.731-32.238h70.297C109.194,114.896,112.926,136.023,94.623,147.134z"/>
<line fill="none" stroke="#000000" stroke-width="1.5" stroke-miterlimit="10" x1="63.275" y1="128.029" x2="87.355" y2="128.029"/>
<path fill="#E9E9E9" stroke="#000000" stroke-width="1.75" stroke-miterlimit="10" d="M25.707,88.229c0,0-12.183-80.95,50.564-80.95
	c61.431,0,51.68,76.472,50.087,82.84l5.075,5.075l-6.269,10.522c0,0-6.829-7.094-10.746-2.715
	c-5.075,5.672-1.295,12.49-0.896,22.043c0,0,0,14.925-12.04,12.537l-0.796-14.328l-6.42,14.328l-16.227-14.328v14.328
	l-15.849-14.328l-9.564,14.328v-14.328l-7.761,14.328c0,0-12.637-3.184-10.646-12.735c1.989-9.553,7.164-24.279-2.787-22.687
	l-5.571,2.785l-6.862-11.94L25.707,88.229z"/>
<path d="M75.024,97.988c0,0-1.98,1.117-4.36,5.282c-2.379,4.163,2.545,8.626,3.801,5.65C75.723,105.947,75.024,97.988,75.024,97.988
	z"/>
<path d="M77.752,101.584c0,0,1.189,9.864,5.354,8.305C87.27,108.326,77.455,99.898,77.752,101.584z"/>
<path fill="none" stroke="#000000" stroke-width="1.75" stroke-miterlimit="10" d="M25.863,104.945c0,0,12.139-10.945,15.422,5.174"
	/>
<path fill="none" stroke="#000000" stroke-width="1.75" stroke-miterlimit="10" d="M125.165,105.717c0,0-11.344-12.145-17.537,0.827
	"/>
<path fill="none" stroke="#000000" stroke-miterlimit="10" d="M38.897,95.194"/>
<path fill="none" stroke="#000000" stroke-width="1.75" stroke-miterlimit="10" d="M64.419,72.559c0,0,9.403,15.748-12.089,27.997"
	/>
<path fill="none" stroke="#000000" stroke-width="1.75" stroke-miterlimit="10" d="M85.662,78.996
	C84.941,90.64,96.284,95.194,96.284,95.194"/>
<circle stroke="#FFFFFF" stroke-miterlimit="10" cx="26.088" cy="95.194" r="1.743"/>
<circle stroke="#FFFFFF" stroke-miterlimit="10" cx="125.165" cy="95.194" r="1.743"/>
<path fill="#FFFFFF" stroke="#000000" stroke-miterlimit="10" d="M66.364,78.996"/>
<path fill="#FFFFFF" stroke="#000000" stroke-width="1.75" stroke-miterlimit="10" d="M25.707,88.229c0,0,5.898-2.03,3.19-14.229"/>
<path fill="none" stroke="#000000" stroke-width="1.75" stroke-miterlimit="10" d="M126.358,90.12c0,0-2.996-3.024-2.937-7.313"/>
</svg>
