<?xml version="1.0" encoding="utf-8"?>
<!-- Generator: Adobe Illustrator 16.0.0, SVG Export Plug-In . SVG Version: 6.00 Build 0)  -->
<!DOCTYPE svg PUBLIC "-//W3C//DTD SVG 1.1//EN" "http://www.w3.org/Graphics/SVG/1.1/DTD/svg11.dtd">
<svg version="1.1" id="Layer_1" xmlns="http://www.w3.org/2000/svg" xmlns:xlink="http://www.w3.org/1999/xlink" x="0px" y="0px"
	 width="1500px" height="625px" viewBox="0 0 1500 625" enable-background="new 0 0 1500 625" xml:space="preserve">
<g>
	<rect x="279" y="47" fill="#2BB9B3" width="34" height="579"/>
	<rect x="279" y="47" fill="#00A79D" width="8" height="579"/>
</g>
<g>
	<rect x="399" y="1" fill="#638663" width="51" height="625"/>
	<rect x="399" y="1" fill="#567563" width="8" height="625"/>
	<rect x="399" fill="#567563" width="51" height="132"/>
	<rect x="399" fill="#456546" width="8" height="132"/>
</g>
<g>
	<rect x="244" y="37" fill="#507863" width="35" height="589"/>
	<rect x="244" y="37" fill="#506B60" width="8" height="589"/>
	<rect x="244" y="527" fill="#506B60" width="35" height="99"/>
	<rect x="244" y="527" fill="#505A56" width="8" height="99"/>
</g>
<g>
	<rect x="450" y="59" fill="#45A393" width="34" height="567"/>
	<rect x="450" y="59" fill="#3E8993" width="8" height="567"/>
</g>
<g>
	<rect x="517" y="104" fill="#45A393" width="59" height="522"/>
	<rect x="517" y="104" fill="#3E8993" width="8" height="522"/>
</g>
<g>
	<rect x="484" y="80" fill="#2BB9B3" width="17" height="546"/>
	<rect x="484" y="80" fill="#009A9D" width="8" height="546"/>
</g>
<g>
	<rect x="501" y="47" fill="#638663" width="17" height="579"/>
	<rect x="501" y="47" fill="#567563" width="8" height="579"/>
	<rect x="501" y="520" fill="#567563" width="17" height="106"/>
	<rect x="501" y="520" fill="#456546" width="8" height="106"/>
</g>
<g>
	<rect x="576" y="37" fill="#638663" width="35" height="589"/>
	<rect x="576" y="37" fill="#567563" width="8" height="589"/>
	<rect x="576" y="527" fill="#567563" width="35" height="99"/>
	<rect x="576" y="527" fill="#456546" width="8" height="99"/>
</g>
<g>
	<rect x="611" y="59" fill="#45A393" width="34" height="567"/>
	<rect x="611" y="59" fill="#459293" width="7" height="567"/>
</g>
<g>
	<rect x="645" y="80" fill="#507863" width="103" height="546"/>
	<rect x="645" y="80" fill="#436363" width="7" height="546"/>
	<rect x="645" y="519" fill="#638663" width="103" height="106"/>
	<rect x="645" y="519" fill="#507863" width="7" height="106"/>
</g>
<g>
	<rect x="849" y="104" fill="#638663" width="58" height="522"/>
	<rect x="849" y="104" fill="#547353" width="8" height="522"/>
</g>
<g>
	<rect x="833" y="18" fill="#507863" width="16" height="608"/>
	<rect x="833" y="18" fill="#456546" width="8" height="608"/>
	<rect x="833" y="519" fill="#456546" width="16" height="106"/>
	<rect x="833" y="519" fill="#454F3A" width="8" height="106"/>
</g>
<g>
	<rect x="942" y="87" fill="#638663" width="33" height="539"/>
	<rect x="942" y="87" fill="#567563" width="7" height="539"/>
</g>
<g>
	<rect x="1009" y="132" fill="#45A393" width="58" height="494"/>
	<rect x="1009" y="132" fill="#459293" width="8" height="494"/>
</g>
<g>
	<rect x="975" y="75" fill="#45A393" width="18" height="551"/>
	<rect x="975" y="75" fill="#008D7D" width="8" height="551"/>
</g>
<g>
	<rect x="993" y="104" fill="#507863" width="16" height="522"/>
	<rect x="993" y="104" fill="#456546" width="7" height="522"/>
	<rect x="993" y="520" fill="#456546" width="16" height="106"/>
	<rect x="993" y="520" fill="#454F3A" width="7" height="106"/>
</g>
<g>
	<rect x="907" y="65" fill="#00A79D" width="35" height="561"/>
	<rect x="907" y="65" fill="#458B93" width="8" height="561"/>
	<rect x="907" y="64" fill="#458B93" width="35" height="99"/>
	<rect x="907" y="64" fill="#396D76" width="8" height="99"/>
</g>
<g>
	<rect x="119" y="104" fill="#2BB9B3" width="34" height="522"/>
	<rect x="119" y="104" fill="#00A79D" width="8" height="522"/>
</g>
<g>
	<rect x="186" y="104" fill="#45A393" width="58" height="522"/>
	<rect x="187" y="104" fill="#459293" width="7" height="522"/>
</g>
<g>
	<rect x="153" y="116" fill="#45A393" width="17" height="510"/>
	<rect x="153" y="116" fill="#459293" width="8" height="510"/>
</g>
<g>
	<rect x="170" y="131" fill="#507863" width="17" height="495"/>
	<rect x="170" y="131" fill="#506B60" width="7" height="495"/>
	<rect x="170" y="526" fill="#506B60" width="17" height="100"/>
	<rect x="170" y="526" fill="#505A56" width="7" height="100"/>
</g>
<g>
	<rect x="85" y="99" fill="#638663" width="34" height="527"/>
	<rect x="85" y="99" fill="#567563" width="8" height="527"/>
	<rect x="85" y="81" fill="#567563" width="34" height="114"/>
	<rect x="85" y="81" fill="#456546" width="8" height="114"/>
</g>
<g>
	<rect x="34" y="116" fill="#2D9193" width="51" height="510"/>
	<rect x="34" y="116" fill="#3D7879" width="9" height="510"/>
</g>
<g>
	<rect y="149" fill="#45A393" width="34" height="477"/>
	<rect y="149" fill="#459293" width="8" height="477"/>
	<rect y="584" fill="#69A893" width="34" height="41"/>
	<rect y="584" fill="#45A393" width="8" height="41"/>
</g>
<g>
	<polygon fill="#008772" points="1189,122 1157,122 1156,626 1189,626 1190,626 1223,626 1223,122 	"/>
	<polygon fill="#007572" points="1157,122 1157,221 1189,221 1190,221 1223,221 1223,122 	"/>
	<rect x="1157" y="123" fill="#007572" width="8" height="503"/>
	<rect x="1157" y="122" fill="#005C60" width="8" height="99"/>
</g>
<g>
	<rect x="1102" y="178" fill="#45A393" width="42" height="448"/>
	<rect x="1102" y="178" fill="#458E93" width="10" height="448"/>
</g>
<g>
	<rect x="1140" y="162" fill="#5D8E67" width="17" height="464"/>
	<rect x="1140" y="162" fill="#5D7F5E" width="8" height="464"/>
</g>
<g>
	<rect x="1067" y="158" fill="#008772" width="35" height="468"/>
	<rect x="1067" y="158" fill="#007572" width="9" height="468"/>
	<rect x="1067" y="528" fill="#007572" width="35" height="98"/>
	<rect x="1067" y="528" fill="#005C60" width="9" height="98"/>
</g>
<g>
	<rect x="347" y="59" fill="#507863" width="35" height="567"/>
	<rect x="347" y="59" fill="#3F5B49" width="8" height="567"/>
</g>
<g>
	<rect x="382" y="13" fill="#45A393" width="17" height="613"/>
	<rect x="382" y="13" fill="#3E8993" width="8" height="613"/>
</g>
<g>
	<rect x="313" y="77" fill="#45A393" width="34" height="549"/>
	<rect x="313" y="77" fill="#459293" width="8" height="549"/>
	<rect x="313" y="76" fill="#69A893" width="34" height="92"/>
	<rect x="313" y="76" fill="#45A393" width="8" height="92"/>
</g>
<g>
	<rect x="1433" y="157" fill="#507863" width="35" height="469"/>
	<rect x="1433" y="157" fill="#506B60" width="8" height="469"/>
	<rect x="1433" y="527" fill="#506B60" width="35" height="99"/>
	<rect x="1433" y="527" fill="#505A56" width="8" height="99"/>
</g>
<g>
	<rect x="1468" y="179" fill="#45A393" width="32" height="447"/>
	<rect x="1468" y="179" fill="#458E93" width="8" height="447"/>
</g>
<g>
	<rect x="1308" y="179" fill="#008772" width="34" height="447"/>
	<rect x="1308" y="179" fill="#007765" width="8" height="447"/>
</g>
<g>
	<rect x="1375" y="224" fill="#007572" width="58" height="402"/>
	<rect x="1376" y="224" fill="#005C60" width="7" height="402"/>
</g>
<g>
	<rect x="1342" y="167" fill="#458B93" width="17" height="459"/>
	<rect x="1342" y="167" fill="#007572" width="8" height="459"/>
</g>
<g>
	<rect x="1359" y="196" fill="#507863" width="17" height="430"/>
	<rect x="1359" y="196" fill="#456546" width="7" height="430"/>
	<rect x="1359" y="520" fill="#456546" width="17" height="106"/>
	<rect x="1359" y="520" fill="#454F3A" width="7" height="106"/>
</g>
<g>
	<rect x="1274" y="75" fill="#458B93" width="34" height="551"/>
	<rect x="1274" y="75" fill="#396D76" width="8" height="551"/>
	<rect x="1274" y="590" fill="#34778D" width="34" height="36"/>
	<rect x="1274" y="590" fill="#005C60" width="8" height="36"/>
</g>
<g>
	<rect x="1223" y="179" fill="#507863" width="35" height="447"/>
	<rect x="1223" y="179" fill="#456546" width="9" height="447"/>
</g>
<g>
	<rect x="1258" y="167" fill="#45A393" width="16" height="459"/>
	<rect x="1258" y="167" fill="#458E93" width="8" height="459"/>
</g>
<g>
	<rect x="781" y="59" fill="#008772" width="34" height="567"/>
	<rect x="781" y="59" fill="#007572" width="8" height="567"/>
</g>
<g>
	<rect x="815" y="47" fill="#45A393" width="18" height="579"/>
	<rect x="815" y="47" fill="#458E93" width="8" height="579"/>
</g>
<g>
	<rect x="747" y="37" fill="#45A393" width="34" height="589"/>
	<rect x="747" y="37" fill="#458E93" width="8" height="589"/>
	<rect x="747" y="36" fill="#007572" width="34" height="99"/>
	<rect x="747" y="36" fill="#005C60" width="8" height="99"/>
</g>
</svg>
